<svg width="10" height="10" fill="none" xmlns="http://www.w3.org/2000/svg"><path d="M1.51 8.82a.44.44 0 00.1.4c.04.06.1.1.17.13a.53.53 0 00.5-.03L5 7.62l2.72 1.7a.52.52 0 00.57-.01.47.47 0 00.18-.23.44.44 0 00.01-.28l-.91-3 2.26-1.92a.47.47 0 00.15-.24.44.44 0 000-.26.47.47 0 00-.17-.22.52.52 0 00-.27-.1l-2.85-.22L5.46.28a.48.48 0 00-.19-.2.52.52 0 00-.54 0 .48.48 0 00-.19.2L3.31 2.84l-2.85.22c-.1 0-.19.04-.26.1a.47.47 0 00-.17.2.44.44 0 00-.02.27c.02.09.07.17.14.23l2.1 1.93-.74 3.03zM5 1.62l1.02 2.12.3.02 1.98.15-1.63 1.38-.24.2.09.28.63 2.06L5 6.49V1.6z" fill="#FFD168"/></svg>