<svg width="14" height="14" fill="none" xmlns="http://www.w3.org/2000/svg"><path d="M13.38 4.6a.52.52 0 00-.17-.16.44.44 0 00-.21-.05h-3V2.02c0-.47-.16-.92-.44-1.25A1.4 1.4 0 008.5.25h-3c-.4 0-.78.19-1.06.52S4 1.55 4 2.02V4.4H1a.44.44 0 00-.21.05.52.52 0 00-.17.15.63.63 0 00-.1.22.7.7 0 00-.02.26l.94 7.18c.04.28.16.53.34.72.18.18.42.28.66.28h9.13c.24 0 .47-.1.66-.28.18-.19.3-.44.34-.72l.93-7.18a.7.7 0 00-.02-.26.63.63 0 00-.1-.22zM5 2.01c0-.15.05-.3.15-.42.09-.1.22-.17.35-.17h3c.13 0 .26.06.35.17.1.12.15.27.15.42V4.4H5V2.02zm6.57 10.05H2.43l-.85-6.5h10.83l-.84 6.5z" fill="currentColor"/></svg>