<svg width="24" height="24" fill="none" xmlns="http://www.w3.org/2000/svg"><path d="M12 24a12.02 12.02 0 01-8.5-3.5A12.02 12.02 0 010 12a12.02 12.02 0 013.5-8.5A12.02 12.02 0 0112 0a12.02 12.02 0 018.5 3.5A12.02 12.02 0 0124 12a12.02 12.02 0 01-3.5 8.5A12.02 12.02 0 0112 24zm6-16.5c0-.4-.14-.76-.43-1.05-.3-.3-.65-.45-1.07-.45h-9c-.4 0-.76.15-1.05.45-.3.3-.45.64-.45 1.05V9h2.67c.9-1 2.02-1.5 3.33-1.5s2.42.5 3.33 1.5H18V7.5zM9 12c0 .83.3 1.54.88 2.12.58.59 1.3.88 2.12.88.83 0 1.54-.3 2.12-.88.59-.58.88-1.3.88-2.12 0-.83-.3-1.54-.88-2.12A2.89 2.89 0 0012 9c-.83 0-1.54.3-2.12.88-.59.58-.88 1.3-.88 2.12zm9-1.5h-1.78a4.38 4.38 0 01-1.03 4.69A4.34 4.34 0 0112 16.5a4.34 4.34 0 01-3.19-1.31 4.34 4.34 0 01-1.03-4.69H6v6c0 .42.14.78.43 1.07.3.29.65.43 1.07.43h9c.42 0 .78-.14 1.07-.43.29-.3.43-.65.43-1.07v-6z" fill="currentColor"/></svg>