<svg width="14" height="17" fill="none" xmlns="http://www.w3.org/2000/svg"><path d="M12.88 7.35c0 4.46-6 8.27-6 8.27s-6-3.81-6-8.27A5.6 5.6 0 012.63 3.3a6.15 6.15 0 014.24-1.67c1.6 0 3.12.6 4.25 1.67a5.6 5.6 0 011.76 4.05z" stroke="currentColor" stroke-width="1.33" stroke-linecap="round" stroke-linejoin="round"/><path d="M6.88 9.26c1.1 0 2-.85 2-1.9 0-1.06-.9-1.92-2-1.92-1.11 0-2 .86-2 1.91 0 1.06.89 1.91 2 1.91z" stroke="currentColor" stroke-width="1.33" stroke-linecap="round" stroke-linejoin="round"/></svg>