<svg width="24" height="24" fill="none" xmlns="http://www.w3.org/2000/svg"><path d="M12 .48a11.52 11.52 0 100 23.04A11.52 11.52 0 0012 .48zm4.69 9.44v.29c0 3-2.28 6.46-6.45 6.46a6.4 6.4 0 01-3.48-1.02l.54.03c1.06 0 2.04-.36 2.82-.97A2.27 2.27 0 018 13.13c.34.07.69.05 1.02-.04a2.27 2.27 0 01-1.82-2.22v-.03c.3.17.66.27 1.03.28a2.27 2.27 0 01-.7-3.03 6.45 6.45 0 004.68 2.38 2.27 2.27 0 013.86-2.07c.51-.1 1-.3 1.44-.56-.17.53-.52.98-1 1.26.45-.05.9-.17 1.3-.36-.3.46-.68.86-1.12 1.18z" fill="currentColor"/></svg>