<svg width="67" height="70" fill="none" xmlns="http://www.w3.org/2000/svg"><path d="M10.47 15.59H9.01V9.1H7.3c-.7 0-1.29.06-1.8.18-.5.11-.93.32-1.27.6a2.4 2.4 0 00-.72 1.14 5.98 5.98 0 00-.23 1.81v18.28c0 .43.07.83.21 1.2a2.84 2.84 0 001.46 1.56c.36.14.74.21 1.16.21a2.78 2.78 0 002.68-1.8c.14-.36.2-.75.2-1.17v-8.94H6.54v-1.31h3.94v10.27c0 .63-.11 1.2-.35 1.72a4.06 4.06 0 01-2.3 2.23c-.52.2-1.08.31-1.68.31a4.5 4.5 0 01-3.1-1.23 4.21 4.21 0 01-1.22-3.03V13.48c0-.43 0-.88.02-1.33.03-.46.08-.9.18-1.31.09-.42.24-.8.44-1.17.21-.38.5-.7.86-.98.38-.29.86-.5 1.43-.66.59-.16 1.3-.24 2.15-.24h3.57v7.8zm13.34-.47v16.33c0 .57-.07 1.1-.22 1.58-.14.48-.35.9-.64 1.25-.29.35-.65.62-1.07.82-.42.2-.91.3-1.47.3-.56 0-1.05-.1-1.48-.28a2.88 2.88 0 01-1.06-.73c-.27-.32-.48-.7-.62-1.13a4.67 4.67 0 01-.22-1.44v-16.7h1.47v16.81c0 .6.16 1.11.48 1.53.34.41.82.62 1.45.62a1.6 1.6 0 001.4-.7c.34-.48.51-1.06.51-1.74V15.12h1.47zM30.64 35V15.12h1.47V35h-1.47zm-.2-26.62c0-.65.32-.98.94-.98.3 0 .54.09.7.26.19.15.28.4.28.72 0 .25-.09.46-.25.64-.16.19-.4.28-.73.28-.3 0-.53-.1-.7-.28a.96.96 0 01-.23-.64zm8.9 8.05h-1.61v-1.31h1.62v-2.46h1.46v2.46h2.68v1.3H40.8v15.51c0 .6.17 1.11.5 1.53.32.4.8.6 1.42.6h.64v1.33h-.64c-.56 0-1.06-.09-1.49-.27a3.09 3.09 0 01-1.05-.74c-.28-.33-.48-.7-.63-1.14a4.6 4.6 0 01-.21-1.42v-15.4zm12.8 17.26c.62 0 1.1-.2 1.42-.62.34-.42.51-.93.51-1.53v-6.9h-1.93c-.62 0-1.09.21-1.43.61-.32.4-.49.92-.49 1.53v6.91h1.92zM48.76 35v-8.09c0-.52.07-1 .21-1.42a3.03 3.03 0 011.7-1.88c.43-.18.92-.27 1.47-.27h1.93v-5.18c0-.6-.17-1.1-.5-1.5-.33-.42-.8-.62-1.43-.62-.62 0-1.09.23-1.43.7a2.94 2.94 0 00-.49 1.72l-1.44.21c0-.56.07-1.08.21-1.56.15-.48.35-.9.63-1.25s.64-.63 1.05-.82c.43-.2.92-.31 1.47-.31.56 0 1.04.09 1.46.27a3.03 3.03 0 011.72 1.9c.14.42.22.9.22 1.4v13.13c0 .52-.08 1-.22 1.44-.14.43-.36.8-.64 1.13-.3.32-.65.56-1.08.75-.42.17-.9.25-1.46.25h-3.38zM66.2 16.3c-.2-.04-.43-.07-.7-.07-.63 0-1.11.2-1.45.63a2.4 2.4 0 00-.5 1.52V35H62.1V18.5c0-.52.08-1 .22-1.43A3.03 3.03 0 0164 15.2a3.77 3.77 0 012.17-.22c.22.03.42.07.6.14l-.58 1.19zM23.17 53.46a14.2 14.2 0 001.34-2.8c-.2-.29-.37-.58-.52-.88a2.3 2.3 0 01-.2-.94c0-.31.03-.6.09-.85s.14-.47.24-.65c.1-.17.22-.3.34-.4.13-.1.26-.15.4-.15.18 0 .33.09.44.28.12.18.17.42.15.7a8.24 8.24 0 01-.44 2.29l.52.59a4.53 4.53 0 01.86 1.24c.1.23.16.48.16.75 0 .37-.08.71-.22 1.03-.13.31-.3.58-.5.8-.19.24-.4.42-.6.54-.22.13-.4.2-.55.2a.85.85 0 01-.6-.21.62.62 0 01-.21-.44c0-.13.02-.26.06-.39a2.62 2.62 0 01.3-.6c.07-.07.1-.1.13-.1.05 0 .07.01.08.04.02.03.02.06.02.08v.18c-.02.07-.02.14-.02.19 0 .14.05.26.14.35.1.1.26.14.48.14.1 0 .2-.02.32-.06a1.1 1.1 0 00.72-1.05c0-.18-.04-.37-.13-.56-.08-.2-.19-.4-.33-.6a42.8 42.8 0 01-.94-1.27 16.36 16.36 0 01-1.38 2.66l-.15-.1zm.96-5.28c0 .32.06.61.18.87.12.24.28.48.47.72a5.24 5.24 0 00.18-1.45c0-.59-.13-.89-.4-.89-.07 0-.16.06-.27.18-.1.11-.16.3-.16.57zm6.5 4.89a308.9 308.9 0 00.22-5.62 137.82 137.82 0 00-.02-7.8v-.46c0-.06.01-.12.03-.17.03-.05.07-.1.14-.14l.18-.1a.41.41 0 01.23-.08c.09 0 .16.02.21.08.05.04.1.12.12.24.03.1.06.3.07.58a111.18 111.18 0 01.04 3.02 92.23 92.23 0 01-.33 6.58 99.5 99.5 0 01-.27 3.18l-.05.69v.15c0 .06 0 .12.02.18 0 .05.02.1.03.14.02.03.05.05.08.05.08 0 .17-.13.27-.4l.35-1.1a13.77 13.77 0 01.69-1.67c.13-.25.27-.45.4-.6.15-.15.29-.23.42-.23.1 0 .19.03.26.1.07.05.14.13.19.22.05.08.09.18.11.28a4.63 4.63 0 01.1.75 37.95 37.95 0 01.1 1.52l.08.83c.04.47.16.81.34 1.02.19.22.43.32.73.32.12 0 .2 0 .28-.02a.79.79 0 01.19-.03c.04 0 .05.04.02.13a.77.77 0 01-.21.18 1.4 1.4 0 01-.68.11c-.27 0-.5-.04-.68-.13-.18-.09-.32-.23-.43-.42-.1-.2-.19-.44-.24-.74a159.48 159.48 0 01-.22-2.62c-.03-.22-.06-.4-.12-.53-.05-.15-.12-.22-.21-.22-.08 0-.16.09-.25.27-.1.17-.2.37-.28.6l-.25.7-.17.54-.16.5c-.06.24-.14.48-.24.73-.09.25-.2.46-.3.65-.11.18-.23.28-.34.28-.1 0-.19-.06-.25-.17-.05-.12-.1-.26-.13-.42a5.17 5.17 0 01-.07-.95zm10.2 1.13a1.48 1.48 0 001.11-.52c.15-.18.27-.4.36-.65a2.95 2.95 0 00.04-1.68 1.98 1.98 0 00-.31-.65c-.13-.19-.3-.34-.5-.45a1.6 1.6 0 00-1.83.3c-.16.15-.28.35-.37.6-.1.23-.14.52-.14.85 0 .27.03.54.1.8.06.26.16.49.29.7.13.21.3.38.5.51.22.13.46.19.74.19zm-.45.65c-.56 0-1.02-.18-1.37-.55-.36-.37-.54-.9-.54-1.61a3.48 3.48 0 011.9-3.03 2.4 2.4 0 011.02-.25c.54 0 .97.19 1.29.55.32.36.48.9.48 1.61a3.43 3.43 0 01-1.79 3.03c-.33.17-.66.25-1 .25zm7.61-7.52c.05 0 .06.09.04.26 0 .16-.03.37-.06.63a111 111 0 01-.09.85 8.5 8.5 0 00-.05.92l.01 1.68.06 1.54c.28-.47.57-.89.86-1.27.3-.38.59-.7.88-.98.3-.27.6-.48.9-.62.29-.15.59-.23.88-.23a.9.9 0 01.6.2c.16.13.24.36.24.7 0 .23-.05.47-.15.71a5.93 5.93 0 01-.95 1.42 11.33 11.33 0 01-2.34 2.04l-.13-.15a19.88 19.88 0 001.84-1.82l.43-.57c.13-.2.23-.38.3-.55.1-.18.14-.34.14-.5l-.03-.2a.52.52 0 00-.09-.24.54.54 0 00-.23-.2.7.7 0 00-.38-.09c-.2 0-.4.07-.62.2a3.4 3.4 0 00-.69.59 7.5 7.5 0 00-.7.91c-.24.36-.48.76-.72 1.2.04.6.07 1.2.12 1.76a122.3 122.3 0 01.2 3.42c.03.58.04 1.2.04 1.84 0 1.49-.09 2.79-.26 3.9a14.98 14.98 0 01-.63 2.8 5.1 5.1 0 01-.86 1.69c-.33.38-.66.57-.98.57a.84.84 0 01-.55-.23 1.84 1.84 0 01-.48-.67 4.27 4.27 0 01-.34-1.07c-.1-.42-.14-.9-.14-1.46 0-.8.07-1.7.23-2.68a35.67 35.67 0 012.82-8.95v-1.27a22.88 22.88 0 01.4-4.53c.09-.52.19-.9.28-1.15.1-.27.17-.4.2-.4zm-.6 13.97a38.64 38.64 0 00-.1-3.25l-.1-1.22-.06-1.44a27.48 27.48 0 00-1.64 4.93 24.3 24.3 0 00-.7 5.34c0 .33.02.7.06 1.1.03.41.1.8.19 1.15.08.36.2.65.34.89.13.25.31.37.53.37.17 0 .33-.1.47-.32.15-.21.27-.5.38-.88a20.28 20.28 0 00.48-2.95 39.21 39.21 0 00.16-3.72z" fill="currentColor"/><path stroke="currentColor" stroke-width=".4" d="M1 38.8h66M13 42.8h54M53 46.8h14M57 50.8h10"/></svg>